<?xml version="1.0" encoding="UTF-8"?>
<svg xmlns="http://www.w3.org/2000/svg" xmlns:xlink="http://www.w3.org/1999/xlink" width="100px" height="100px" viewBox="0 0 100 100" version="1.1">
<g id="surface1">
<path style=" stroke:none;fill-rule:nonzero;fill:rgb(3.529412%,65.490196%,61.568627%);fill-opacity:1;" d="M 98.332031 50 C 98.332031 76.695312 76.695312 98.332031 50 98.332031 C 23.304688 98.332031 1.667969 76.695312 1.667969 50 C 1.667969 23.304688 23.304688 1.667969 50 1.667969 C 76.695312 1.667969 98.332031 23.304688 98.332031 50 Z M 98.332031 50 "/>
<path style=" stroke:none;fill-rule:nonzero;fill:rgb(100%,100%,100%);fill-opacity:1;" d="M 74.367188 58.632812 C 74.367188 47.367188 63.933594 45.300781 54.132812 44 L 54.132812 31.132812 C 57.886719 31.652344 60.875 34.535156 61.535156 38.265625 L 72.566406 38.265625 C 71.535156 27 61.800781 23.765625 54 22.867188 L 54 14.167969 L 45.867188 14.167969 L 45.867188 22.601562 C 35.101562 23.332031 26.667969 27.699219 26.667969 37.898438 C 26.667969 48.101562 36.332031 50.765625 46 52 L 46 66.667969 C 41.101562 66.347656 37.226562 62.402344 37 57.5 L 25.632812 57.5 C 25.632812 66.867188 31.632812 73.5 45.867188 74.667969 L 45.867188 85.167969 L 54.132812 85.167969 L 54.132812 74.566406 C 63.867188 73.832031 74.367188 70 74.367188 58.632812 Z M 37.699219 37.035156 C 37.699219 33.167969 41.035156 31.066406 45.933594 30.601562 L 45.933594 42.898438 C 41.035156 42.066406 37.566406 40.667969 37.566406 37.035156 Z M 54.367188 66.765625 L 54.367188 53.332031 C 59.566406 54.300781 63.367188 55.898438 63.367188 59.765625 C 63.367188 63.632812 59.101562 66.101562 54.132812 66.667969 Z M 54.367188 66.765625 "/>
</g>
</svg>
